<?xml version="1.0" encoding="UTF-8" standalone="no"?>
<!-- Created with Inkscape (http://www.inkscape.org/) -->

<svg
   xmlns:dc="http://purl.org/dc/elements/1.1/"
   xmlns:cc="http://creativecommons.org/ns#"
   xmlns:rdf="http://www.w3.org/1999/02/22-rdf-syntax-ns#"
   xmlns:svg="http://www.w3.org/2000/svg"
   xmlns="http://www.w3.org/2000/svg"
   xmlns:sodipodi="http://sodipodi.sourceforge.net/DTD/sodipodi-0.dtd"
   xmlns:inkscape="http://www.inkscape.org/namespaces/inkscape"
   width="210mm"
   height="297mm"
   viewBox="0 0 210 297"
   version="1.1"
   id="svg8"
   inkscape:version="0.92.1 unknown"
   sodipodi:docname="drawing.svg">
  <defs
     id="defs2" />
  <sodipodi:namedview
     id="base"
     pagecolor="#ffffff"
     bordercolor="#666666"
     borderopacity="1.0"
     inkscape:pageopacity="0.0"
     inkscape:pageshadow="2"
     inkscape:zoom="256"
     inkscape:cx="601.30078"
     inkscape:cy="742.64648"
     inkscape:document-units="mm"
     inkscape:current-layer="layer1"
     showgrid="false"
     inkscape:window-width="1301"
     inkscape:window-height="744"
     inkscape:window-x="65"
     inkscape:window-y="24"
     inkscape:window-maximized="1" />
  <metadata
     id="metadata5">
    <rdf:RDF>
      <cc:Work
         rdf:about="">
        <dc:format>image/svg+xml</dc:format>
        <dc:type
           rdf:resource="http://purl.org/dc/dcmitype/StillImage" />
        <dc:title></dc:title>
      </cc:Work>
    </rdf:RDF>
  </metadata>
  <g
     inkscape:label="Layer 1"
     inkscape:groupmode="layer"
     id="layer1">
    <path
       style="fill:none;stroke:#000000;stroke-width:0.26458332px;stroke-linecap:butt;stroke-linejoin:miter;stroke-opacity:1"
       d="M -88.446426,-22.767857 191.25595,-31.083332 317.5,-12.184524"
       id="path10"
       inkscape:connector-curvature="0" />
    <path
       style="fill:none;stroke:#000000;stroke-width:0.26458332px;stroke-linecap:butt;stroke-linejoin:miter;stroke-opacity:1"
       d="M 368.14881,83.065476 281.21427,176.04762"
       id="path12"
       inkscape:connector-curvature="0" />
    <path
       style="fill:none;stroke:#000000;stroke-width:0.26458332px;stroke-linecap:butt;stroke-linejoin:miter;stroke-opacity:1"
       d="m 142.875,175.29167 c -1.25992,-1.00794 -2.28641,-2.4129 -3.77976,-3.02382 -8.84748,-3.61942 -24.2427,-5.87405 -32.50596,-8.31547 -15.742996,-4.65134 -31.002916,-10.9068 -46.869042,-15.11905 -12.657431,-3.36038 -26.050909,-3.66259 -38.553572,-7.55952 -7.103927,-2.21421 -12.6783293,-7.9953 -19.6547613,-10.58333 -8.7668201,-3.25221 -18.0619917,-4.88798 -27.2142857,-6.80358 -8.957892,-1.8749 -40.124266,-7.66114 -54.42857,-9.07142 -103.292569,-10.18378 2.533531,0.54378 -53.672619,-3.77977 -1.0359,-0.0797 -2.00503,-0.55219 -3.02381,-0.75595 -0.24709,-0.0494 -1.00451,-0.0414 -0.75595,0 9.79077,1.6318 1.13205,-0.74221 13.60714,4.53572 3.74919,1.58619 7.89433,2.36666 11.33929,4.53571 20.757304,13.06941 -3.28627,5.24578 20.41071,11.33929 34.824493,8.95486 -5.436462,-1.28045 31.75,6.80357 0.348226,0.0757 0.400643,0.78328 0.755952,0.75595 3.05649,-0.23512 6.02466,-1.17338 9.071429,-1.51191 1.502657,-0.16696 3.02381,0 4.535715,0 3.779761,0 7.594973,-0.51645 11.339285,0 7.440287,1.02625 10.970761,3.34609 17.386904,6.04762 2.501275,1.05317 4.962206,2.23675 7.5595242,3.02381 5.7321878,1.73703 11.5705791,3.10547 17.3869046,4.53572 9.5556312,2.34974 19.9247632,2.40285 28.7261912,6.80357 7.337888,3.66894 11.920775,11.28385 18.142857,16.63095 9.910098,8.51649 19.666206,17.26685 30.238094,24.94643 26.168934,19.0095 47.465084,20.23625 57.452384,46.86904 1.99614,5.32306 2.66483,11.05634 3.77976,16.63096 0.14825,0.74127 0,1.5119 0,2.26785 0,1.0469 0.17818,1.77077 -1.51191,2.26787 -10.71524,3.15153 -28.71801,4.31588 -37.79762,1.51191 C 97.298771,265.40468 90.464303,257.2447 81.642856,253.15476 69.063332,247.32243 -1.1398839,222.7059 -16.630952,208.55357 -26.649346,199.40096 -32.465102,186.25785 -37.797618,173.77976 -49.021663,147.51549 -59.733777,115.68675 -54.428572,86.089285 -51.588098,70.242442 -50.643337,52.112894 -40.065475,39.976189 -5.8157432,0.67912865 32.635227,0.64123551 78.619047,-8.4047617 c 10.32823,-2.0317833 20.492807,-5.3233953 30.994043,-6.0476193 12.55304,-0.865726 67.12958,-1.878795 86.93453,3.779762 6.40119,1.8289127 11.64152,6.4642301 17.3869,9.82738091 4.58745,2.68533609 10.20417,4.23191079 13.60714,8.31547619 2.12179,2.5461419 2.91765,6.8259319 1.51191,9.8273809 -8.19333,17.493867 -17.28755,34.910935 -29.48215,49.892857 -14.82403,18.212387 -51.71697,22.243817 -69.54761,26.458333 -12.31519,2.910861 -24.53753,6.370391 -37.041669,8.315471 -18.727086,2.91311 -66.968007,3.02381 -80.886903,3.02381 -6.3046408,0 -12.72668948,0.52991 -18.8988094,-0.75595 -6.0927326,-1.26932 -11.7724286,-4.11839 -17.3869046,-6.80357 -0.454647,-0.21744 -0.396279,-1.200542 0,-1.511903 C 5.761992,72.382583 -6.6504367,83.604266 37.797618,67.946428 79.091879,53.399586 65.527861,46.150656 129.26786,62.654761 c 8.12358,2.10343 13.59223,10.130393 18.8988,16.630952 4.92179,6.029192 8.03224,13.365249 11.33929,20.410714 7.56902,16.125303 10.10036,33.705813 11.33929,51.404763 0.95017,13.57393 0.85769,27.24134 0,40.82143 -1.02949,16.30021 -11.13779,71.47661 -18.89881,79.37499 -18.88736,19.22166 -46.66358,27.10624 -71.059525,38.55357 -15.955134,7.48665 -31.331577,9.02931 -48.380954,7.55952 -7.635478,-0.65823 -15.408053,-1.35626 -22.6785702,-3.77976 -7.2705171,-2.4235 -16.7773089,-3.83558 -20.4107138,-10.58333 -6.167251,-11.45347 -5.167718,-25.57502 -6.047619,-38.55357 -5.404516,-79.7166 2.035395,-62.21457 74.839285,-142.87499 8.64866,-9.58197 19.27857,-17.37122 30.238093,-24.19048 20.054234,-12.478186 48.625964,-27.869353 74.083334,-17.386903 15.99555,6.5864 19.05768,35.941663 19.65476,48.380953 2.28559,47.61634 0.27225,101.20648 -11.33928,147.41071 -5.54279,22.05567 -10.32366,46.08306 -24.94643,63.5 -26.11834,31.1091 -58.411892,57.81307 -93.738096,77.86309 -13.375153,7.5913 -30.73849,1.13229 -46.113095,1.51191 -1.5095357,0.0373 -16.487916,2.78207 -19.654762,-3.02382 -0.844642,-1.5485 -0.974614,-3.82148 0,-5.29166 28.92681,-43.63535 59.853192,-85.91545 89.202381,-129.26785 9.209257,-13.60323 14.912203,-29.89214 26.458332,-41.57738 21.24596,-21.50194 48.32211,-22.90886 72.57143,-38.55358 4.82845,-3.11512 6.86186,-9.22894 10.58333,-13.60714 0.58842,-0.69225 1.40594,-1.2246 2.26786,-1.5119 0.23905,-0.0797 0.15741,0.55918 0,0.75595 -1.89551,2.36938 -3.53548,5.10179 -6.04762,6.80357 -23.96366,16.23345 -9.59705,3.00019 -29.48214,14.3631 -7.23822,4.13612 -1.12057,3.77976 -5.29167,3.77976"
       id="path14"
       inkscape:connector-curvature="0" />
    <path
       style="fill:none;stroke:#000000;stroke-width:0.26458332px;stroke-linecap:butt;stroke-linejoin:miter;stroke-opacity:1"
       d="M 146.65476,211.57738 106.58928,183.60714"
       id="path16"
       inkscape:connector-curvature="0" />
    <path
       style="fill:none;stroke:#000000;stroke-width:0.26458332px;stroke-linecap:butt;stroke-linejoin:miter;stroke-opacity:1"
       d="M 57.452381,212.33333 219.22619,84.577379"
       id="path18"
       inkscape:connector-curvature="0" />
    <path
       style="fill:none;stroke:#000000;stroke-width:0.26458332px;stroke-linecap:butt;stroke-linejoin:miter;stroke-opacity:1"
       d="M 77.863093,168.48809 182.94047,83.821428"
       id="path20"
       inkscape:connector-curvature="0" />
    <path
       style="fill:none;stroke:#000000;stroke-width:0.26458332px;stroke-linecap:butt;stroke-linejoin:miter;stroke-opacity:1"
       d="M 132.29166,80.797619 101.29762,-80.220237"
       id="path22"
       inkscape:connector-curvature="0" />
    <path
       style="fill:none;stroke:#000000;stroke-width:0.26458332px;stroke-linecap:butt;stroke-linejoin:miter;stroke-opacity:1"
       d="M 132.29166,217.625 C 107.54008,208.34315 120.47684,214.68367 99.02976,200.99404 92.252807,196.66833 84.205219,193.92503 78.619047,188.14285 59.627695,168.48514 56.124231,156.80277 46.113094,134.47024"
       id="path24"
       inkscape:connector-curvature="0" />
    <path
       style="fill:none;stroke:#000000;stroke-width:0.26458332px;stroke-linecap:butt;stroke-linejoin:miter;stroke-opacity:1"
       d="m 323.5476,182.09524 c -2.84178,17.76116 0.46088,18.22494 -12.09521,29.48214 -3.90411,3.50024 -8.75326,5.80025 -12.85121,9.07143 -24.63655,19.66602 -47.55382,41.56985 -73.32737,59.72022 -10.2309,7.20487 -22.19915,11.76415 -34.01786,15.875 -30.52284,10.61665 -56.46647,10.25713 -89.20238,11.3393 -12.592326,0.41627 -25.2361,0.97375 -37.797619,0 -41.671144,-3.23032 -63.1437349,1.95596 -87.690475,-31.75 -19.118987,-26.25294 -45.20842,-103.20434 -45.357142,-127 -0.09377,-15.00282 14.490594,-26.27655 21.922618,-39.30952 9.955469,-17.458143 14.874433,-39.204792 30.238096,-52.160715 C 3.3621509,40.503239 30.167233,33.866761 54.428572,24.10119 101.17169,5.2863503 125.65505,4.834133 179.16071,2.9345239 196.54397,2.3173668 214.14949,1.674581 231.32142,4.4464284 285.16728,13.138084 370.34364,12.572242 410.48215,65.67857 c 6.97092,9.223079 7.49604,21.938303 9.82736,33.261906 1.22058,5.928524 0.75597,12.089994 0.75597,18.142854 0,15.03317 -0.29427,35.39675 -15.11906,45.35715 -49.38879,33.18309 -88.42483,40.40851 -143.63095,47.62499 -40.6809,5.31777 -60.03834,7.36419 -99.02976,-1.5119 -16.47462,-3.75032 -34.84543,-5.0063 -48.38095,-15.11905 -10.20169,-7.62195 -13.28762,-21.96113 -17.386904,-34.01785 -3.323854,-9.77605 -13.607433,-59.02784 -8.315475,-73.327385 8.494601,-22.953498 16.754179,-48.555676 35.529759,-64.255952 13.53833,-11.320844 34.63052,-7.036674 52.16072,-9.071428 10.76596,-1.249622 21.66967,-0.962358 32.50595,-0.755953 27.53826,0.524539 67.78223,0.634061 92.98213,15.119049 18.90956,10.869266 33.31286,28.16239 49.89287,42.333333 37.09451,31.704716 60.85983,35.910106 38.55358,97.517856 -5.86679,16.20348 -80.95742,45.60909 -84.66667,47.625 -49.52791,26.91734 -53.51331,45.49189 -114.14882,49.89285 -10.8884,0.7903 -21.4302,-5.31883 -30.99404,-10.58333 -4.73983,-2.60908 -71.580331,-43.35115 -77.107146,-61.98809 -7.835604,-26.42239 -6.979108,-54.83963 -6.803572,-82.39881 0.07869,-12.354685 1.643337,-25.439373 7.559524,-36.285716 26.891354,-49.300821 37.076574,-46.268922 81.642854,-68.7916656 8.8513,-4.47323605 16.6782,-11.9626947 26.45834,-13.6071425 42.20459,-7.0963489 112.36464,0.7629411 142.11904,34.0178561 14.69589,16.424829 8.82169,43.820838 6.80358,65.767858 -2.08865,22.71396 -10.91798,44.39983 -18.89882,65.76785 -15.40676,41.25041 -40.09773,89.18918 -75.59524,117.17263 -23.25106,18.32931 -62.25571,27.70423 -92.22618,29.48213 -2.41188,0.14308 -58.741894,2.4367 -74.083335,-3.02379 C 72.493726,297.03641 65.309495,291.3721 57.452381,287.17261 50.693433,283.56007 42.938268,281.48457 37.041666,276.58927 21.681031,263.83706 10.69292,246.09739 6.047619,226.69643 3.9906183,218.10542 4.0036062,209.05588 4.5357142,200.23809 5.7727246,179.73906 2.9500756,157.75059 11.339286,139.00595 19.870648,119.94369 40.732757,109.09881 52.916666,92.136903 73.721837,63.172839 91.387024,15.923335 120.19643,-9.1607141 136.85636,-23.666346 154.30237,-41.34086 176.1369,-44.690477 223.5084,-51.957694 272.92929,-27.368243 297.08927,12.761905 315.89281,43.994892 257.31531,111.1334 254,116.32738 c -46.14684,72.29671 -43.30417,73.3197 -109.6131,129.26785 -84.560857,71.34824 -73.935484,88.46223 -154.970233,87.69047 -11.573768,-0.11023 -54.483619,-6.88613 -61.988094,-18.14285 -24.211142,-36.31671 -10.096444,-63.87157 11.339285,-94.49404 17.040376,-24.3434 32.50161,-51.54098 56.6964278,-68.79167 C 126.98831,58.081706 163.07636,44.837937 294.06548,14.273809 c 59.33316,-13.84440446 84.73697,-24.505505 141.36309,1.511905 8.94165,4.108325 15.08609,13.606935 18.89882,22.678572 6.54036,15.561577 1.11085,73.956954 -3.02382,80.886904 -10.46504,17.54 -31.73926,25.71567 -47.625,38.55357 -27.45552,22.1879 -55.43071,43.74596 -82.39882,66.52381 -175.33134,148.08862 -51.85576,66.9711 -315.232131,208.64285 -0.8001301,0.4304 -1.4057497,-1.36554 -1.5119048,-2.26785 -0.4121899,-3.50361 -2.5256933,-8.1204 0,-10.58333 C 83.931865,342.79665 163.26197,265.02846 247.95238,193.43452 608.08282,-111.00565 153.73704,324.03388 467.93451,15.029762 c 1.77853,-1.749129 -3.30057,3.788953 -5.29167,5.291666 -11.38655,8.593641 -23.69378,15.960995 -34.77379,24.946428 C 346.95286,110.88755 265.28008,175.66023 186.72024,244.08333 116.80033,304.98132 56.190551,376.64699 -17.386905,433.07142 c -11.197561,8.58708 -28.222221,0 -42.333333,0 -1.763888,0 -6.59116,1.19274 -5.291667,0 C 296.45469,101.30038 91.732475,284.12373 403.67857,36.196428 c 70.2455,-55.829442 139.71085,-112.645953 208.64285,-170.089278 0.9679,-0.80659 0.7965,-4.75597 0,-3.77977 -213.28475,261.40389 -24.60586,60.263409 -275.16667,278.19047 -234.73299,204.16073 -137.33983,171.60134 -435.428558,292.55357 -13.776192,5.58983 -29.912352,2.29513 -44.601192,0 -6.8363,-1.06817 14.02682,-1.11109 20.41072,-3.77975 24.539301,-10.25824 50.460673,-18.9188 71.815471,-34.77382 C 162.25012,236.44958 366.58446,67.078063 579.05951,-91.559522 c 8.31535,-6.208389 -7.45908,20.213257 -15.11903,27.214285 C 477.43146,14.722126 387.60484,90.107359 297.84524,165.46428 211.70205,237.78506 124.94142,309.42502 36.285715,378.64285 30.380379,383.25342 10.16088,391.81905 15.119047,386.20236 84.008999,308.16298 156.57261,233.39185 229.80952,159.41667 344.80494,43.262002 439.78062,-63.639112 612.32142,-96.851188 643.59125,-102.87026 575.18691,-44.340531 551.08927,-23.523809 468.22563,48.057924 283.01915,197.49064 161.77381,263.73809 132.82285,279.55666 100.7565,288.847 70.303572,301.5357 c -2.810526,1.17107 -10.511221,5.88907 -8.315479,3.77978 C 105.40747,263.60552 257.18989,125.34198 298.60118,96.672618 339.93957,68.053735 386.31328,47.352299 431.64881,25.613095 535.94814,-24.400326 624.35615,7.3248863 612.32142,-81.732143 c -0.16873,-1.248571 -2.61155,-0.471887 -3.77976,0 -46.59606,18.822054 -151.69814,54.874302 -204.86309,94.494048 -22.61873,16.856 -41.66108,38.085685 -63.5,55.940475 -15.49043,12.664474 -31.17651,25.314618 -48.38097,35.52976 -1.95,1.15783 -1.71767,-5.322795 0,-6.80357 13.55612,-11.686294 29.60786,-20.148116 43.84525,-30.994048 92.61432,-70.5528975 184.33052,-142.277476 276.67857,-213.178572 0.19986,-0.15345 0.18965,0.59002 0,0.75596 -3.90949,3.42079 -7.93607,6.71497 -12.09524,9.82738 C 529.29059,-83.078036 460.99396,-26.212002 387.0476,22.589285 348.01209,48.350984 303.44221,64.57353 262.31547,86.845237 221.52979,108.93225 180.08168,130.09911 141.36309,155.6369 108.83773,177.0898 81.233139,205.36262 49.136905,227.45238 38.17667,234.9956 26.150229,243.68033 12.85119,244.08333 6.3512257,244.2803 19.865848,233.06486 24.190476,228.20833 258.36642,-34.769999 53.331038,157.09116 243.41666,49.803571 263.37573,38.538332 268.54721,15.375817 290.28572,8.9821426 c 0.96697,-0.2844056 0.33899,2.0745934 0,3.0238094 -0.94755,2.65314 -1.53024,5.863456 -3.77978,7.559524 -29.75226,22.432262 -63.40916,39.74106 -91.47023,64.255952 -18.19879,15.898947 -27.9655,39.983112 -46.11309,55.940472 -11.67889,10.26937 -27.83877,13.87923 -41.57738,21.16667 -15.243251,8.08555 -31.305324,14.93248 -45.357147,24.94643 -8.130968,5.79448 -12.32722,16.06208 -20.410712,21.92262 -2.652117,1.92278 -7.13405,1.86461 -9.827381,0 -1.864614,-1.29089 -0.444765,-4.57976 0,-6.80358 0.331507,-1.65753 1.434488,-3.06506 2.267857,-4.53571 3.451754,-6.09133 8.721471,-11.39361 10.583333,-18.14286 2.007587,-7.2775 -4.378462,-1.7961 -5.291666,-4.53571 -0.159369,-0.47811 0,-1.00794 0,-1.51191 0,-1.85278 -0.338072,-2.32106 0.755951,-3.77976 0.427633,-0.57017 1.164551,-0.88956 1.511906,-1.5119 67.882709,-121.623199 -7.106637,-10.97147 99.029759,-110.369047 90.33061,-84.595337 -15.30776,-5.64447 52.16072,-71.815476 4.82725,-4.734421 11.88482,-6.511324 18.14285,-9.071429 4.86984,-1.992208 10.09212,-2.981936 15.11905,-4.535715 8.83247,-2.730034 17.63091,-5.569167 26.45833,-8.315475 2.51203,-0.781519 5.00728,-1.629797 7.55953,-2.267858 0.48892,-0.12223 1.15554,-0.356359 1.5119,0 0.35636,0.356359 0,1.007938 0,1.511906 0,3.320277 0.10098,2.014072 -4.53571,6.047618 -69.15493,60.159166 -90.85705,80.063564 -159.505954,133.047616 -80.25491,61.94171 0.80414,-1.936561 -106.5892844,61.9881 -11.2281916,6.68344 -19.0334226,18.22362 -30.2380956,24.94642 -3.241119,1.94468 -7.58264,0.41741 -11.339285,0 -0.902985,-0.10033 -2.133084,-0.61341 -2.267857,-1.5119 -0.67283,-4.48553 -2.185845,-9.63288 0,-13.60714 C 2.1439838,72.913535 -12.482304,90.528118 71.059523,36.95238 95.252531,21.437299 119.9562,6.7332798 144.3869,-8.4047617 161.02963,-18.717128 175.6828,-33.276831 194.27976,-39.39881 c 22.91882,-7.544702 47.79466,-6.792082 71.81548,-9.071427 21.28337,-2.019591 41.93095,-8.033851 49.13691,20.410714 7.74549,30.574324 -9.99641,50.064029 -30.99406,68.791666 -26.63812,23.758321 -55.86206,44.448478 -83.91071,66.523807 -26.38028,20.76226 -54.22562,39.75075 -79.375,61.98809 -22.825948,20.18295 -37.432374,50.55955 -64.255953,65.01191 -33.737739,18.17766 -73.828682,20.67037 -111.124999,29.48214 -1.236938,0.29224 -25.451659,3.88043 -34.017854,3.02382 -0.250735,-0.0251 -0.213683,-0.62241 0,-0.75597 1.911231,-1.19451 4.233172,-1.68684 6.047618,-3.0238 7.793675,-5.74271 15.339425,-11.82961 22.67857,-18.14286 39.535432,-34.00897 77.86555,-69.42367 117.928571,-102.80952 3.561495,-2.96791 93.917947,-76.754867 119.440477,-86.178571 11.57729,-4.27469 51.597,-11.734147 72.57143,-9.827379 0.50189,0.04563 0.0988,1.017722 0,1.511903 -0.15628,0.78137 -0.24631,1.655305 -0.75596,2.267858 -25.73226,30.928206 -52.18085,61.256429 -77.86309,92.226189 -17.15756,20.68999 -30.90413,44.50659 -50.64881,62.74405 -13.77755,12.72583 -32.369336,18.9591 -48.380953,28.72619 -9.189919,5.60585 -17.471464,12.80895 -27.214285,17.3869 -20.358579,9.56608 -30.108551,12.85119 -49.1369038,12.85119 -0.3563593,0 0.4548005,-0.56543 0.7559524,-0.75595 C 21.376918,247.54494 47.00534,233.92469 70.303572,216.86904 407.6682,-30.101233 -81.485993,305.08511 241.90476,101.20833 c 18.80886,-11.857759 31.70906,-32.853253 52.16072,-41.577378 4.57047,-1.949646 59.09537,-9.105532 76.35118,-0.755951 2.44298,1.182089 2.16559,4.984842 3.02382,7.559521 0.15936,0.478107 0.15936,1.033799 0,1.511906 -1.86537,5.596091 -1.45391,12.930462 -6.04764,16.630951 -23.40451,18.853631 -50.87125,32.050181 -75.59524,49.136901 -33.69892,23.28932 -79.46833,63.58517 -120.19641,80.13096 -22.31907,9.06712 -46.76074,11.83736 -69.54762,19.65476 -59.891351,20.54666 -9.040189,12.47519 -60.476189,21.92262 -3.478577,0.63892 -13.654106,2.51068 -10.583333,0.75595 6.764541,-3.86545 78.217242,-34.8904 87.690472,-41.57738 22.35202,-15.77789 40.52969,-36.94556 62.74405,-52.91667 16.49499,-11.85914 35.10369,-20.46968 52.91667,-30.23809 29.06049,-15.9364 57.91102,-32.320315 87.69048,-46.869051 3.42617,-1.673862 7.55219,-1.066363 11.33928,-1.511903 0.50051,-0.05889 1.23235,-0.419327 1.5119,0 0.41932,0.628989 0.62495,1.84254 0,2.267858 -17.79875,12.113032 -36.62235,22.671756 -54.42857,34.773806 -30.57053,20.77738 -101.06478,84.01431 -155.72619,98.27381 -16.79557,4.38146 -34.306932,5.32336 -51.404759,8.31548 -3.070215,0.53728 -5.996967,1.75544 -9.07143,2.26785 -1.572004,0.262 3.125988,-0.76859 4.535715,-1.5119 C 108.97877,206.26281 150.06618,186.62901 188.98809,163.19643 248.92736,127.11054 302.33506,79.907449 365.125,49.047619 392.49254,35.597094 424.7099,35.128578 455.08333,32.416668 515.76805,26.998387 572.71734,22.598282 594.17857,101.96428 618.23647,190.93311 525.97814,208.71739 472.47024,233.5 c -45.63489,21.13616 -52.841,15.46147 -108.10119,24.94643 -71.16495,12.21488 -2.78254,10.75785 -120.95239,9.82739 -3.42724,-0.027 -6.80969,-1.39891 -9.82738,-3.02382 -0.66559,-0.3584 -0.0377,-1.51285 0,-2.26786 0.21429,-4.28578 -1.1631,-9.01308 0.75596,-12.85119 8.85178,-17.70357 19.31339,-34.66968 30.99403,-50.64881 19.87976,-27.19551 43.04215,-51.8557 63.5,-78.61905 16.34834,-21.38719 22.00286,-55.45513 46.86906,-65.767853 109.42807,-45.3829552 173.575,-27.33785 236.61309,64.255953 9.28589,13.49232 0,32.75794 0,49.1369 0,13.85913 3.94943,28.29291 0,41.57738 -2.08738,7.02118 -9.43785,12.97981 -16.63094,14.3631 -46.31815,8.90733 -93.56223,12.48617 -140.60715,15.875 -16.51334,1.18952 -62.62005,-6.58118 -77.86309,-9.82738 -13.98741,-2.9788 -28.70235,-4.35805 -41.57739,-10.58334 -10.63088,-5.1402 -17.24819,-16.34498 -27.21428,-22.67857 -27.8085,-17.67269 -64.08787,-25.22566 -80.88691,-57.45238 -6.69622,-12.84581 -7.8763,-27.97897 -9.82738,-42.33333 -0.56345,-4.145375 -8.18132,-44.189459 9.82738,-49.136903 18.78673,-5.16119 38.75651,-4.193582 58.20834,-5.291666 22.2795,-1.257716 45.91129,0.05868 68.03572,3.023809 13.67258,1.832409 27.43846,3.457831 40.82143,6.80357 5.90764,1.476914 11.09273,5.027766 16.63094,7.559524 3.28125,1.500005 8.68648,1.112993 9.82739,4.535715 1.28733,3.862019 -2.44126,7.848494 -4.53573,11.339285 -31.35976,52.266266 -9.68917,14.756828 -71.05951,58.964286 -14.18021,10.21456 -23.22531,27.13571 -38.55358,35.52976 -58.96495,32.29033 -149.20401,14.89959 -202.59523,-4.53571 C 86.606876,159.77184 78.498228,138.21042 69.547617,121.61905 57.616605,99.50302 50.5065,75.0782 42.333333,51.315476 29.119218,12.896665 22.273802,-10.072884 30.994048,-51.494046 c 1.484701,-7.052334 6.918359,-13.2953 12.851191,-17.386906 21.095448,-14.548585 34.03977,-14.176433 57.452381,-12.851191 39.46928,2.234113 85.81938,4.753515 120.95238,25.702382 21.43418,12.780631 36.07469,34.496069 54.42857,51.404761 60.45502,55.69479 54.09578,35.815972 96.76191,139.85119 4.01577,9.79186 0.78761,21.19601 0,31.75 -0.4781,6.40654 0.82008,14.41396 -3.77976,18.89881 -6.80117,6.63113 -17.31248,8.01802 -26.45833,10.58333 -15.5053,4.34904 -49.54265,9.42625 -66.52382,9.82738 -18.47751,0.43648 -142.1105,-1.61195 -150.43452,-5.29167 C 90.682222,185.27358 60.731804,157.27466 35.52976,127.66667 14.726067,103.22596 13.500747,38.833438 22.678571,12.005952 c 6.831942,-19.9702902 22.034493,-36.088186 34.77381,-52.916665 7.809407,-10.316133 34.674167,-40.662645 52.160709,-42.333333 61.83522,-5.907823 92.1624,-7.752083 136.07143,28.72619 20.14743,16.737854 39.20714,35.184812 55.18454,55.940475 14.69294,19.087122 43.56552,90.295094 50.64879,109.613091 16.2447,44.30369 28.06993,55.66708 -1.51191,96.00596 -5.3417,7.28413 -15.3094,9.66065 -23.43452,13.60714 -32.80659,15.93462 -35.73581,13.76844 -76.35118,18.89881 -8.28395,1.04639 -16.59763,2.14136 -24.94643,2.26785 -31.33599,0.47479 -61.76874,-5.63126 -79.375,-41.57738 -10.41893,-21.27197 -1.38416,-47.41349 0,-71.05952 1.644,-28.08514 -1.39984,-57.798832 9.07143,-83.910714 10.22474,-25.497147 33.92601,-43.2174485 50.64881,-65.011903 17.9779,-23.430216 63.62902,-88.152583 87.69046,-106.589283 3.67186,-2.81349 8.43751,3.97177 12.09524,6.80357 8.52858,6.60277 20.04201,20.550586 21.92264,30.994047 10.59762,58.850691 17.8861,118.269807 24.94642,177.648807 2.77268,23.318986 2.2737,46.929526 4.5357,70.303576 8.2699,85.45549 6.17678,11.69263 8.31549,80.13095 0.1574,5.03722 0,10.07936 0,15.11904 0,0.25199 0.17817,0.57778 0,0.75596 -0.17818,0.17817 -0.50398,0 -0.75595,0 -3.77978,0 -7.55954,0 -11.3393,0 -9.32341,0 -18.79285,1.6437 -27.97024,0 -8.01431,-1.43541 -15.42878,-5.36598 -22.67857,-9.07143 -4.17362,-2.13319 -7.49941,-5.62756 -11.33928,-8.31548 -3.72152,-2.60507 -7.45437,-5.20503 -11.33927,-7.55952 -4.43735,-2.6893 -9.0351,-5.10623 -13.60715,-7.55952 -5.76018,-3.09083 -12.49598,-4.7342 -17.38691,-9.07143 -8.69087,-7.707 -14.96139,-17.77651 -22.67857,-26.45834 -2.36752,-2.66346 -4.79377,-5.31234 -7.55952,-7.55952 -1.31192,-1.06593 -3.12925,-1.33022 -4.53572,-2.26786 -0.88953,-0.59302 -1.41259,-1.62641 -2.26786,-2.26785 -0.20158,-0.1512 -0.81706,0.24445 -0.75595,0 0.72079,-2.88314 6.11282,-9.04453 6.80357,-9.82739 0.83391,-0.94509 8.3114,-9.29298 11.33929,-9.07143 3.04534,0.22283 29.98114,4.78415 37.04167,9.82739 3.91742,2.79816 6.90676,6.75631 9.82736,10.58333 10.44835,13.69091 14.45017,25.36523 27.97025,37.04167 5.03843,4.35137 11.59129,6.55158 17.3869,9.82738"
       id="path26"
       inkscape:connector-curvature="0" />
    <path
       style="fill:none;stroke:#000000;stroke-width:0.26458332px;stroke-linecap:butt;stroke-linejoin:miter;stroke-opacity:1"
       d="m 158.49988,100.6802 c 0.004,-8e-4 0.008,-0.001 0.0114,-0.002 0.0176,-0.004 0.0348,-0.0103 0.0527,-0.0134 0.0201,-0.003 0.0407,-0.004 0.061,-0.006 0.0111,-0.001 0.022,-0.004 0.0331,-0.005 0.008,-0.001 0.0159,-0.001 0.0238,-0.002 0.0124,-10e-4 0.0248,-0.002 0.0372,-0.003 0.0103,-5.3e-4 0.0207,-1.6e-4 0.031,-10e-4 0.0101,-7.9e-4 0.0199,-0.003 0.03,-0.004 0.004,-2.6e-4 0.008,0 0.0114,0 0.002,0 0.003,0 0.005,0 0.001,0 0.002,0 0.003,0 8e-4,0 0.003,2.7e-4 0.002,0 -0.001,-5.3e-4 -0.003,-7.9e-4 -0.004,-0.001 -0.001,-2.6e-4 -0.003,-7.9e-4 -0.004,-10e-4 -0.002,-1.9e-4 -0.003,1e-4 -0.005,0 -0.004,-2.4e-4 -0.008,-0.001 -0.0114,-0.001 -0.0152,-2.7e-4 -0.0303,-2.2e-4 -0.0455,0 -0.0546,7.9e-4 -0.19813,0.003 -0.26665,0.006 -0.0566,0.003 -0.13842,0.009 -0.19223,0.0155 -0.0211,0.003 -0.042,0.007 -0.0631,0.0104 -0.0327,0.005 -0.0663,0.006 -0.0982,0.0145 -0.0174,0.005 -0.0305,0.0201 -0.0476,0.0259 -0.0484,0.0164 -0.0985,0.027 -0.14779,0.0403 -7.9e-4,1.8e-4 -0.001,2.6e-4 -0.002,0 -2.6e-4,-1.6e-4 -7e-5,-8e-4 0,-0.001 5.3e-4,-0.003 2.1e-4,-0.006 0.002,-0.008 0.009,-0.0109 0.0177,-0.0246 0.031,-0.03 0.0963,-0.0388 0.19382,-0.0762 0.29456,-0.10128 0.0886,-0.0221 0.11452,0.004 0.19017,0.0279 0.0314,0.01 0.0635,0.0177 0.0951,0.0269 0.0252,0.007 0.0542,0.007 0.0754,0.0227 0.0371,0.0269 0.066,0.064 0.094,0.10025 0.0252,0.0326 0.0187,0.0903 0.0165,0.12403 -0.001,0.0167 0.002,0.0365 -0.008,0.0496 -0.0309,0.0384 -0.0642,0.0814 -0.11058,0.0982 -0.0506,0.0183 -0.10749,0 -0.16123,0 -0.0119,0 -0.12476,2.7e-4 -0.13229,-0.001 -0.0203,-0.004 -0.0393,-0.0127 -0.0579,-0.0217 -0.0413,-0.0199 -0.0933,-0.089 -0.10852,-0.11162 -0.008,-0.0115 -0.0146,-0.073 -0.009,-0.0847 0.0126,-0.0279 0.0338,-0.0512 0.0538,-0.0744 0.0681,-0.0793 0.15154,-0.12159 0.25321,-0.16019 0.024,-0.009 0.14469,-0.0174 0.18293,-0.0145 0.0557,0.004 0.0683,0.005 0.10749,0.03 0.01,0.006 0.0215,0.0111 0.0279,0.0207 0.009,0.0134 0.021,0.03 0.0165,0.0455 -0.003,0.0111 -0.0999,0.14661 -0.10852,0.15297 -0.0313,0.0231 -0.0726,0.0282 -0.10748,0.0455 -0.0691,0.0342 -0.0932,0.0638 -0.16537,0.0837 -0.0295,0.008 -0.0982,0.004 -0.12299,-0.006 -0.0131,-0.005 -0.0211,-0.019 -0.03,-0.03 -0.0167,-0.0208 -0.0356,-0.0408 -0.0465,-0.0651 -0.0111,-0.0247 -0.003,-0.0978 0.005,-0.11679 0.008,-0.0193 0.0232,-0.0352 0.0382,-0.0496 0.0286,-0.0275 0.0573,-0.0562 0.092,-0.0755 0.0884,-0.049 0.28954,-0.0426 0.35243,-0.0424 0.0279,9e-5 0.0553,0.008 0.0827,0.0134 0.0647,0.0133 0.0901,0.005 0.11782,0.06 0.0104,0.0209 0.0193,0.0608 0.0207,0.0868 0.002,0.041 0.002,0.0792 -0.0248,0.11576 -0.0139,0.0194 -0.0358,0.0322 -0.0568,0.0434 -0.0603,0.0321 -0.12112,0.0646 -0.18603,0.0858 -0.0242,0.008 -0.0511,0.003 -0.0765,0 -0.0308,-0.003 -0.087,-0.0285 -0.10852,-0.0434 -0.0127,-0.009 -0.0199,-0.0235 -0.031,-0.0341 -0.0101,-0.01 -0.0208,-0.0106 -0.0258,-0.0238 -0.004,-0.0112 -0.004,-0.025 0,-0.0362 0.005,-0.0132 0.009,-0.027 0.0176,-0.0382 0.0211,-0.028 0.0436,-0.028 0.0734,-0.0434 0.009,-0.005 0.0165,-0.011 0.0248,-0.0165 0.002,-0.001 0.004,-0.003 0.006,-0.004"
       id="path37"
       inkscape:connector-curvature="0" />
    <path
       style="fill:none;stroke:#000000;stroke-width:0.26458332px;stroke-linecap:butt;stroke-linejoin:miter;stroke-opacity:1"
       d="m 158.5898,101.07501 c 0.001,-2.7e-4 0.003,-8e-4 0.004,-0.001 0.002,-2e-4 0.004,0 0.006,0 0.004,0 0.008,0 0.0114,0 0.024,0 0.005,-5.3e-4 0.0331,0.002 0.005,5.2e-4 0.01,7.9e-4 0.0145,0.001 0.01,5.3e-4 0.0194,-2.1e-4 0.0289,0.001 0.006,8e-4 0.0124,0.003 0.0186,0.005 0.008,0.002 0.0151,0.004 0.0227,0.006 0.023,0.006 0.0463,0.0112 0.0692,0.0176 0.009,0.003 0.0177,0.007 0.0269,0.009 0.0112,0.003 0.0229,0.004 0.0341,0.006 0.008,0.002 0.016,0.004 0.0238,0.007 0.008,0.003 0.0195,0.009 0.0279,0.0114 0.0174,0.005 0.0354,0.007 0.0527,0.0124 0.009,0.003 0.017,0.009 0.0248,0.0135 0.002,0.001 0.005,0.003 0.007,0.004 0.0125,0.004 0.0254,0.003 0.0382,0.005 0.0136,0.002 0.0132,0.002 0.0238,0.006"
       id="path39"
       inkscape:connector-curvature="0" />
    <path
       style="fill:none;stroke:#000000;stroke-width:0.26458332px;stroke-linecap:butt;stroke-linejoin:miter;stroke-opacity:1"
       d="m 158.55053,100.84246 c -0.003,-0.003 -0.007,-0.006 -0.0104,-0.009 -0.003,-0.004 -0.006,-0.009 -0.009,-0.0124 -0.003,-0.003 -0.007,-0.004 -0.0103,-0.006 -0.005,-0.004 -0.01,-0.008 -0.0145,-0.0114 -0.001,-2.7e-4 -0.002,-5.3e-4 -0.003,-10e-4 -2.6e-4,-1.9e-4 0,-7.9e-4 0,-0.001 0,-2.6e-4 0,-7.9e-4 0,-0.001 0,-0.002 0,-0.004 0,-0.006 0,-2.6e-4 -2.4e-4,-7.9e-4 0,-10e-4 5.3e-4,-5.3e-4 0.001,-7.9e-4 0.002,-0.001 0.003,-0.002 0.008,-0.003 0.0104,-0.005 0.0587,-0.0552 -0.0216,-0.008 0.0992,-0.0537 0.0134,-0.005 0.0262,-0.0118 0.0393,-0.0176 0.0103,-0.005 0.0202,-0.0101 0.031,-0.0134 0.0159,-0.005 0.033,-0.005 0.0486,-0.0114 0.0182,-0.007 0.0339,-0.0191 0.0517,-0.0269 0.003,-0.001 0.006,2.5e-4 0.009,0 0.006,-5.3e-4 0.011,-0.002 0.0165,-0.002 0.006,-2.7e-4 0.0117,5.3e-4 0.0176,0 0.004,-5.3e-4 0.007,-0.003 0.0114,-0.003 0.01,-2.5e-4 0.0193,10e-4 0.0289,0.002 0.011,7.9e-4 0.0222,2.5e-4 0.0331,0.002 0.003,5.3e-4 0.0285,0.0112 0.032,0.0124 0.0161,0.005 0.0325,0.0101 0.0486,0.0155 0.0107,0.004 0.0211,0.008 0.032,0.0114 0.0474,0.0131 0.008,-0.002 0.0568,0.008 0.005,0.001 0.01,0.004 0.0145,0.006 0.0128,0.006 0.016,0.0104 0.0289,0.0186 0.0915,0.058 0.0175,0.006 0.0599,0.0413 0.003,0.003 0.007,0.005 0.0103,0.007 0.003,0.002 0.005,0.004 0.008,0.006 0.003,0.002 0.006,0.002 0.008,0.004 0.003,0.002 0.005,0.004 0.007,0.006 0.003,0.002 0.006,0.004 0.008,0.006 0.01,0.0114 0.007,0.0115 0.0114,0.0227 7.9e-4,0.002 0.002,0.004 0.003,0.006 8e-4,0.003 10e-4,0.006 0.002,0.009 5.3e-4,0.002 0.003,0.002 0.003,0.004 7.9e-4,0.003 7.9e-4,0.006 0.001,0.008 2.6e-4,0.002 7.9e-4,0.005 10e-4,0.007 5.3e-4,0.009 -7.9e-4,0.0204 -0.003,0.0289 -2.7e-4,0.001 -0.003,0.002 -0.003,0.003 -5.3e-4,0.002 2.7e-4,0.003 0,0.005 -2.6e-4,0.002 -0.002,0.003 -0.002,0.004 -0.001,0.003 -0.002,0.006 -0.003,0.009 -0.002,0.004 -0.004,0.007 -0.005,0.0114 -0.003,0.0141 -0.002,0.0392 -0.002,0.0527 0,0.008 -5.2e-4,0.0152 0,0.0227 5.3e-4,0.007 0.005,0.005 0.009,0.0114 0.0235,0.0357 0.0476,0.0711 0.0682,0.10852 0.0104,0.0189 0.0165,0.04 0.0248,0.06 0.0148,0.0158 0.0325,0.0294 0.0444,0.0475 0.009,0.0137 0.006,0.0592 0.006,0.0703 0,0.031 0,0.062 0,0.093"
       id="path41"
       inkscape:connector-curvature="0" />
    <path
       style="fill:none;stroke:#000000;stroke-width:0.26458332px;stroke-linecap:butt;stroke-linejoin:miter;stroke-opacity:1"
       d="m 159.08279,101.20213 c -0.0145,0.001 -0.0289,0.003 -0.0434,0.004 -0.005,7.9e-4 -0.0103,0.002 -0.0155,0.002 -0.0352,0.004 -0.0259,0.002 -0.0579,0.007 -0.0202,0.004 -0.013,0.004 -0.0382,0.006 -0.12929,0.01 0.0755,-0.01 -0.0682,0.006 -0.0118,10e-4 -0.0471,0.003 -0.062,0.006 -0.005,10e-4 -0.01,0.004 -0.0145,0.005 -0.006,0.002 -0.0124,0.004 -0.0186,0.005 -0.0103,0.003 -0.0215,0.003 -0.031,0.007 -0.0129,0.006 -0.0236,0.0163 -0.0351,0.0248 -0.0115,0.008 -0.0106,0.0112 -0.0248,0.0155 -0.006,0.002 -0.0118,0.002 -0.0176,0.003 -0.006,0.001 -0.0124,0.003 -0.0186,0.004 -0.0351,0.007 0.002,-7.9e-4 -0.0145,0.003 -0.002,2.6e-4 -0.003,7.9e-4 -0.005,10e-4 -8e-4,2.6e-4 -10e-4,7.9e-4 -0.002,0.001 -7.9e-4,1.6e-4 -0.001,-1.4e-4 -0.002,0 -0.002,5.3e-4 -0.003,0.001 -0.005,0.002"
       id="path43"
       inkscape:connector-curvature="0" />
    <path
       style="fill:none;stroke:#000000;stroke-width:0.26458332px;stroke-linecap:butt;stroke-linejoin:miter;stroke-opacity:1"
       d="m 158.32728,101.26828 c 5.3e-4,-0.002 0.004,-0.0141 0.005,-0.0155 0.011,-0.0117 0.0247,-0.0139 0.0393,-0.0196 0.007,-0.003 0.0142,-0.004 0.0196,-0.008 0.0163,-0.014 0.0259,-0.0357 0.0444,-0.0465 0.0194,-0.0114 0.0437,-0.0108 0.0651,-0.0176 0.0127,-0.004 0.0254,-0.008 0.0372,-0.0145 0.009,-0.005 0.017,-0.0128 0.0259,-0.0186 0.0156,-0.0103 0.0319,-0.0196 0.0475,-0.03 0.009,-0.006 0.0457,-0.034 0.0599,-0.0393 0.028,-0.0103 0.0741,-0.0145 0.10129,-0.0196 0.004,-7.9e-4 0.008,-0.003 0.0124,-0.004 0.003,-8e-4 0.006,-5.3e-4 0.008,-10e-4 0.001,-2.3e-4 0.003,-8e-4 0.004,-0.001 10e-4,-1.9e-4 0.003,0 0.004,0"
       id="path45"
       inkscape:connector-curvature="0" />
    <path
       style="fill:none;stroke:#000000;stroke-width:0.26458332px;stroke-linecap:butt;stroke-linejoin:miter;stroke-opacity:1"
       d="m 158.90296,101.01713 c 0.005,0 0.004,0.001 0.005,-0.003"
       id="path47"
       inkscape:connector-curvature="0" />
    <path
       style="fill:none;stroke:#000000;stroke-width:0.26458332px;stroke-linecap:butt;stroke-linejoin:miter;stroke-opacity:1"
       d="m 159.00528,100.98302 0.0434,0.009"
       id="path49"
       inkscape:connector-curvature="0" />
    <path
       style="fill:none;stroke:#000000;stroke-width:0.26458332px;stroke-linecap:butt;stroke-linejoin:miter;stroke-opacity:1"
       d="m 159.04662,100.94375 c 7.9e-4,0.003 7.9e-4,0.006 0.002,0.008 0.004,0.009 0.002,-0.002 0.005,0.005 2.6e-4,5.3e-4 -1.2e-4,0.001 0,0.002 2.3e-4,0.001 5.2e-4,0.003 0.001,0.004 0.009,0.0216 -0.003,-0.0244 0.007,0.0341 0.004,0.0255 0.0109,0.0507 0.0134,0.0765 0.002,0.0188 -0.003,0.0808 0.007,0.10645 0.007,0.0167 0.032,0.0328 0.0444,0.0424"
       id="path51"
       inkscape:connector-curvature="0" />
    <path
       style="fill:none;stroke:#000000;stroke-width:0.26458332px;stroke-linecap:butt;stroke-linejoin:miter;stroke-opacity:1"
       d="m 159.12642,101.2222 c 0.0155,0.10502 -0.006,-0.0492 0.008,0.076 0.002,0.0128 0.003,0.0257 0.006,0.0382 0.003,0.0139 0.002,0.002 0.005,0.004 0.008,0.005 2.2e-4,10e-4 0.007,0.006 0.002,10e-4 0.003,0.002 0.005,0.003 0.001,10e-4 0.003,0.002 0.004,0.003"
       id="path53"
       inkscape:connector-curvature="0" />
    <path
       style="fill:none;stroke:#000000;stroke-width:0.26458332px;stroke-linecap:butt;stroke-linejoin:miter;stroke-opacity:1"
       d="m 159.11897,101.30858 c -0.007,-0.004 -0.0145,-0.005 -0.0217,-0.008 -0.005,-0.002 -0.01,-0.005 -0.0145,-0.006 -0.016,-0.006 -0.0202,-0.002 -0.031,-0.0155 -0.004,-0.005 -0.006,-0.0103 -0.008,-0.0155 -0.008,-0.0152 -0.0265,-0.0465 -0.03,-0.0672 -0.002,-0.0119 -0.002,-0.0241 -0.002,-0.0362 -8e-4,-0.0252 -0.003,-0.034 0.007,-0.0558 0.003,-0.006 0.007,-0.0103 0.0104,-0.0155"
       id="path55"
       inkscape:connector-curvature="0" />
    <path
       style="fill:none;stroke:#000000;stroke-width:0.26458332px;stroke-linecap:butt;stroke-linejoin:miter;stroke-opacity:1"
       d="m 159.12724,101.04607 c 0.0383,5.3e-4 0.0739,-0.0169 0.11162,-0.0196 0.0241,-0.002 0.0484,-0.001 0.0723,0.002 0.0122,0.002 0.0169,0.023 0.0186,0.03 0.005,0.0208 0.004,0.0248 0.004,0.0434 0,0.0325 10e-4,0.0366 -0.0103,0.0817 -0.002,0.01 -0.007,0.0188 -0.0124,0.0269 -0.004,0.005 -0.0103,0.008 -0.0155,0.0124 -0.0223,0.0173 -0.0461,0.0329 -0.0672,0.0517 -0.0101,0.009 -0.0159,0.0219 -0.0258,0.031 -0.002,0.002 5.3e-4,-0.005 0,-0.007 -0.001,-0.005 -0.003,-0.01 -0.004,-0.0145 -0.003,-0.0137 -0.004,-0.0278 -0.007,-0.0413 -0.002,-0.006 -0.004,-0.0121 -0.007,-0.0176 -0.002,-0.003 -0.005,-0.005 -0.007,-0.007 -0.001,-0.001 -0.003,-0.003 -0.004,-0.004 -0.003,-0.003 -0.008,-0.005 -0.0103,-0.009 -0.004,-0.006 -0.005,-0.0357 -0.005,-0.0372 -2.7e-4,-0.007 0,-0.0131 0,-0.0196 0,-0.003 -0.001,-0.007 0,-0.0103 0.003,-0.008 0.004,-0.007 0.009,-0.007 2.7e-4,0 8e-4,1.1e-4 0.001,0 7.9e-4,-2.4e-4 0.001,-10e-4 0.002,-10e-4 0.002,5.3e-4 0.004,0.002 0.005,0.003 0.0303,0.0288 0.014,0.0206 0.0362,0.0796 0.003,0.009 0.008,0.0168 0.0124,0.0248 0.002,0.003 0.005,0.006 0.007,0.009 0.002,0.003 0.004,0.007 0.006,0.009 0.005,0.005 0.0125,0.008 0.0176,0.0134 0.0248,0.0258 0.0513,0.0539 0.0693,0.0858 0.001,0.002 7.9e-4,0.004 0.001,0.006 1e-4,5.3e-4 1.2e-4,0.002 -0.001,0.002 -0.0318,0.001 -0.0566,0.001 -0.0879,0.001 -0.0209,0 -0.0185,0.001 -0.0413,-0.005 -0.009,-0.003 -0.0198,-0.004 -0.0279,-0.009 -0.007,-0.005 -0.0116,-0.012 -0.0145,-0.0196 -0.0121,-0.0317 -0.0192,-0.065 -0.03,-0.0971 -0.012,-0.0358 -0.0241,-0.0715 -0.0382,-0.10645 -0.004,-0.01 -0.0126,-0.017 -0.0155,-0.0269 -0.005,-0.0176 -0.004,-0.067 0.003,-0.0817 0.004,-0.008 0.0153,-0.0108 0.0227,-0.0165 0.003,-0.003 0.006,-0.006 0.009,-0.008 0.002,-0.001 0.003,-7.9e-4 0.005,-0.001 0.001,-1.5e-4 0.003,-2.6e-4 0.004,0 0.007,0.002 0.0177,0.0112 0.0207,0.0145 0.0142,0.0155 0.0281,0.0314 0.0403,0.0486 0.0266,0.0376 0.0255,0.0589 0.0341,0.10852 0.003,0.0175 0.006,0.035 0.007,0.0527 0.004,0.0513 0.007,0.10266 0.0104,0.154 5.3e-4,0.008 0.001,0.0152 0.001,0.0227 -4e-5,7.9e-4 -0.001,-8e-4 -0.002,-0.001 -0.0137,-0.002 -0.0283,-10e-4 -0.0413,-0.006 -0.0145,-0.005 -0.0451,-0.0261 -0.0517,-0.0444 -0.0105,-0.0295 -0.0146,-0.061 -0.0238,-0.0909 -0.009,-0.0287 -0.0237,-0.0555 -0.03,-0.0847 -0.006,-0.0269 -0.002,-0.071 0.0134,-0.0961 0.007,-0.0122 0.0204,-0.0197 0.0289,-0.031 0.0119,-0.0157 0.0162,-0.038 0.032,-0.0496 0.0349,-0.0256 0.0756,-0.0426 0.11575,-0.0589 0.0339,-0.0138 0.0713,-0.0176 0.10542,-0.031 0.003,-10e-4 0,-0.007 0,-0.0104 0,-7.9e-4 0,0.001 0,0.002 0,10e-4 0,0.003 0,0.004 0,0.009 0.002,0.0182 0,0.0269 -2.6e-4,10e-4 -0.005,-0.0249 -0.005,-0.0258 -0.001,-0.007 -0.002,-0.0131 -0.003,-0.0196 -0.002,-0.0113 -0.002,-0.0229 -0.004,-0.0341 -0.002,-0.009 -0.005,-0.0168 -0.008,-0.0248 -0.003,-0.008 -0.007,-0.0154 -0.0124,-0.0217 -0.006,-0.007 -0.0146,-0.0101 -0.0207,-0.0165 -0.0223,-0.0236 -0.0422,-0.0494 -0.0641,-0.0734 -0.003,-0.003 -0.007,-0.006 -0.0103,-0.008 -0.004,-0.002 -0.007,-0.004 -0.0114,-0.005 -0.0162,-0.006 -0.022,-0.005 -0.0413,-0.007 -0.0519,-0.006 -0.0471,-0.01 -0.11472,0.0134 -0.012,0.004 -0.0399,0.0378 -0.0455,0.0434 -0.0137,0.0137 -0.0236,0.0183 -0.0331,0.0341 -0.006,0.0101 -0.005,0.0219 -0.005,0.0331 -2.2e-4,0.0141 0,0.0282 0,0.0424 0,0.0107 -0.005,0.0224 0,0.032 0.01,0.0208 0.021,0.0187 0.0362,0.0238 0.002,7.9e-4 0.005,0.002 0.007,0.003 0.005,0.002 0.004,5.3e-4 0.009,0.002 0.004,0.001 0.008,0.003 0.0114,0.004 0.009,0.003 0.0194,0.004 0.0279,0.008 0.002,0.001 -0.005,0.002 -0.007,0.003 -0.0164,0.004 -0.0352,0.003 -0.0496,0.0124 -0.0208,0.0131 -0.0332,0.0366 -0.0527,0.0517 -0.028,0.0217 -0.0643,0.0325 -0.0889,0.0579 -0.0395,0.0407 -0.064,0.0939 -0.10025,0.13746 -0.0225,0.0269 -0.0535,0.046 -0.0754,0.0734 -0.0896,0.11177 0.0455,0.0201 -0.11782,0.12196 -0.008,0.005 -0.0206,0.017 -0.0279,0.0104 -0.0434,-0.0394 -0.001,-0.027 -0.005,-0.0444 -5.2e-4,-0.002 -0.001,-0.003 -0.002,-0.005 -0.008,-0.0199 -0.004,-0.005 -0.009,-0.0486 -5.3e-4,-0.004 -7.9e-4,-0.008 0,-0.0124 7.9e-4,-0.004 0.003,-0.007 0.004,-0.0104 0.002,-0.006 0.004,-0.0124 0.006,-0.0186 0.008,-0.0217 0.0119,-0.0403 0.032,-0.0558 0.007,-0.006 0.018,-0.005 0.0269,-0.008 0.0146,-0.005 0.0304,-0.007 0.0434,-0.0155 0.0128,-0.008 0.0198,-0.0232 0.032,-0.032 0.0476,-0.0342 0.0668,-0.0323 0.12506,-0.0476 0.0114,-0.003 0.0226,-0.007 0.0341,-0.009 0.0201,-0.004 0.0375,-0.007 0.0579,-0.005 0.004,2.6e-4 0.009,2.6e-4 0.0114,0.003 0.002,0.002 10e-4,0.006 10e-4,0.009 2.7e-4,0.0196 5.3e-4,0.0393 0,0.0589 -5.3e-4,0.0185 -0.006,0.0628 -0.003,0.0827 0.002,0.0155 0.009,0.0301 0.0124,0.0455 0.004,0.0211 0.007,0.0463 0.008,0.0682 2.1e-4,0.004 0,0.008 0,0.0114 0,0.006 5.3e-4,0.0124 0,0.0186 -5.3e-4,0.004 -0.002,0.008 -0.003,0.0114 -2.3e-4,7.9e-4 -5.3e-4,0.003 -0.001,0.002 -0.001,-10e-4 -8e-4,-0.003 -0.001,-0.004 -0.007,-0.0296 -0.0177,-0.0586 -0.0207,-0.0889 -0.002,-0.0159 0.003,-0.032 0.007,-0.0475 0.003,-0.0132 0.009,-0.0256 0.0145,-0.0382 0.0116,-0.0284 0.024,-0.0468 0.0393,-0.0765 0.008,-0.0153 0.011,-0.0338 0.0227,-0.0465 0.0103,-0.0112 0.0265,-0.0152 0.0403,-0.0217 0.0124,-0.006 0.0255,-0.0102 0.0382,-0.0155 0.007,-0.003 0.0152,-0.005 0.0217,-0.009 0.0219,-0.0146 0.0104,-0.0207 0.0372,-0.0341 0.0242,-0.0121 0.0504,-0.0197 0.0754,-0.03 0.0208,-0.009 0.0301,-0.0159 0.0527,-0.0207 0.0215,-0.005 0.0435,-0.006 0.0651,-0.0104 0.0231,-0.004 0.005,-0.004 0.0134,-0.004 2.6e-4,0 -8e-4,-4e-5 -0.001,0 -0.002,2.7e-4 -0.005,8e-4 -0.007,10e-4 -0.0744,0.01 0.0161,-0.005 -0.0961,0.0248 -0.001,2.7e-4 0,-0.003 0,-0.004 0,-0.005 -2.2e-4,-0.0104 0,-0.0155 0.002,-0.0434 0.005,-0.0868 0.006,-0.13022 0.001,-0.0312 2.6e-4,-0.0908 -0.0114,-0.11576 -0.005,-0.0102 -0.019,-0.0129 -0.03,-0.0155 -0.0209,-0.005 -0.0427,-0.005 -0.0641,-0.007 -0.005,-5.3e-4 -0.0104,-8e-4 -0.0155,0 -0.0187,0.002 -0.0377,0.004 -0.0558,0.009 -0.008,0.002 -0.0149,0.008 -0.0217,0.0124 -0.0418,0.029 -0.0823,0.0597 -0.12402,0.0889 -0.0646,0.0452 -0.0597,0.0324 -0.12816,0.0982 -0.0113,0.0109 -0.0187,0.0253 -0.0289,0.0372 -0.03,0.035 -0.005,0.003 -0.0196,0.0176 -2.4e-4,2.5e-4 7.9e-4,-1.1e-4 0.001,0 0.002,5.3e-4 0.003,10e-4 0.005,0.002 0.001,5.3e-4 0.003,0.002 0.004,0.002 0.011,0.003 0.0221,0.005 0.0331,0.007 0.009,0.002 0.004,0.002 0.007,0.002 2.6e-4,0 7.9e-4,0 10e-4,0 2.6e-4,0 7.9e-4,1.7e-4 0.001,0 0.006,-0.003 0.002,-0.003 0.006,-0.003"
       id="path57"
       inkscape:connector-curvature="0" />
    <path
       style="fill:none;stroke:#000000;stroke-width:0.26458332px;stroke-linecap:butt;stroke-linejoin:miter;stroke-opacity:1"
       d="m 158.79752,100.95938 c -0.002,0.004 -0.005,0.008 -0.005,0.0123 1e-5,0.002 0.004,10e-4 0.005,0.002 0.002,8e-4 0.003,0.002 0.005,0.003 0.005,0.003 0.01,0.005 0.0145,0.008 0.0178,0.0118 0.0351,0.0241 0.0527,0.0362 0.005,0.003 0.009,0.006 0.0134,0.009 0.003,0.002 0.005,0.005 0.008,0.006 0.002,10e-4 0.005,10e-4 0.007,0.002 0.007,0.002 0.0137,0.005 0.0207,0.007 0.01,0.003 0.0205,0.003 0.03,0.007 0.008,0.003 0.0126,0.0119 0.0207,0.0145 0.0112,0.004 0.0235,0.002 0.0351,0.003 0.027,0.004 0.0536,0.009 0.0806,0.0124 0.13511,0.0169 -0.003,-0.002 0.10232,0.005 0.006,5.3e-4 0.011,0.003 0.0165,0.004 0.004,7.9e-4 0.008,0.001 0.0114,0.002 0.002,2.7e-4 0.003,0.002 0.004,0.002 0.002,5.3e-4 0.003,7.9e-4 0.005,0.001 0.0125,0.002 0.007,10e-4 0.0279,0"
       id="path59"
       inkscape:connector-curvature="0" />
    <path
       style="fill:none;stroke:#000000;stroke-width:0.26458332px;stroke-linecap:butt;stroke-linejoin:miter;stroke-opacity:1"
       d="m 158.88952,101.10394 c -0.0171,0.005 -0.0142,0.004 -0.0434,0.008 -0.007,10e-4 -0.0191,0.002 -0.0269,0 -0.003,-7.9e-4 -0.006,-0.002 -0.008,-0.003 -0.008,-0.004 -0.0169,-0.008 -0.0248,-0.0124 -0.005,-0.003 -0.01,-0.006 -0.0145,-0.009 -0.004,-0.002 -0.008,-0.004 -0.0114,-0.006 -0.009,-0.007 -0.023,-0.0174 -0.031,-0.0269 -0.004,-0.005 -0.009,-0.0108 -0.0124,-0.0165 -0.002,-0.004 -0.004,-0.008 -0.006,-0.0124 -0.007,-0.0161 0.002,-0.001 -0.005,-0.0103 -5.3e-4,-5.3e-4 -2.6e-4,-0.002 -0.001,-0.002 -0.003,-0.002 -0.01,-0.002 -0.0134,-0.003"
       id="path61"
       inkscape:connector-curvature="0" />
    <path
       style="fill:none;stroke:#000000;stroke-width:0.26458332px;stroke-linecap:butt;stroke-linejoin:miter;stroke-opacity:1"
       d="m 158.36243,101.11221 -0.25425,0.24288"
       id="path63"
       inkscape:connector-curvature="0" />
    <path
       style="fill:none;stroke:#000000;stroke-width:0.26458332px;stroke-linecap:butt;stroke-linejoin:miter;stroke-opacity:1"
       d="m 158.0441,101.37163 c -0.002,0.002 -0.006,0.009 -0.008,0.0114 -0.003,0.004 -0.005,0.008 -0.009,0.0114 -0.0152,0.0116 -0.033,0.0197 -0.0475,0.032 -0.007,0.009 -0.0257,0.0335 -0.0362,0.0424 -0.003,0.003 -0.007,0.005 -0.0114,0.006 -0.003,7.9e-4 -0.006,0 -0.008,0 -0.0103,0 -0.0207,0 -0.031,0 -0.004,0 -0.008,2.6e-4 -0.0124,0 -2.7e-4,-3e-5 -2.7e-4,-10e-4 0,-10e-4 2.6e-4,0 -2.7e-4,10e-4 0,10e-4 5.3e-4,0 5.3e-4,-8e-4 0.001,-10e-4 5.3e-4,-5.3e-4 0.001,-7.9e-4 0.002,-0.001"
       id="path65"
       inkscape:connector-curvature="0" />
    <path
       style="fill:none;stroke:#000000;stroke-width:0.26458332px;stroke-linecap:butt;stroke-linejoin:miter;stroke-opacity:1"
       d="m 159.30914,100.19341 c -0.005,-5.3e-4 -0.004,-7e-5 -0.007,0.003"
       id="path67"
       inkscape:connector-curvature="0" />
    <path
       style="fill:none;stroke:#000000;stroke-width:0.26458332px;stroke-linecap:butt;stroke-linejoin:miter;stroke-opacity:1"
       d="m 159.23369,100.35567 c -0.0224,0.002 -0.004,-2.2e-4 -0.0155,0.002 -2.6e-4,7e-5 -7.9e-4,0 -0.001,0 -0.002,0 -0.002,-8e-5 -0.005,0.001 -0.004,10e-4 -0.007,0.003 -0.0114,0.004 -0.003,8e-4 -0.006,5.3e-4 -0.008,0.001 -0.004,5.3e-4 -0.008,0.001 -0.0124,0.002 -0.005,0.001 -0.0103,0.002 -0.0155,0.003 -0.003,5.3e-4 -0.007,8e-4 -0.0104,0.001 -0.003,2.7e-4 -0.006,8e-4 -0.009,0.001 -0.01,5.3e-4 -0.0369,-0.001 -0.0413,-0.001 -0.007,-1.4e-4 -0.0131,7e-5 -0.0196,0 -0.0269,-2.6e-4 -0.0537,-7.9e-4 -0.0806,-0.001 -0.009,-8e-5 -0.0186,8e-4 -0.0279,0 -0.0121,-10e-4 -0.0241,-0.004 -0.0362,-0.005 -0.0113,-0.001 -0.0228,-0.001 -0.0341,-0.003 -0.005,-7.9e-4 -0.009,-0.003 -0.0134,-0.004 -0.002,-5.3e-4 -0.004,-5.3e-4 -0.006,-10e-4 -0.0165,-0.003 -0.0102,-0.003 -0.0238,-0.004 -0.01,-8e-4 -0.0107,-5.3e-4 -0.0186,-0.002 -0.001,-2.7e-4 -0.003,-7.9e-4 -0.004,-0.001 -2.7e-4,-7e-5 -8e-4,2.4e-4 -0.001,0 -2.5e-4,-2.5e-4 0,-7.9e-4 0,-0.001"
       id="path69"
       inkscape:connector-curvature="0" />
    <path
       style="fill:none;stroke:#000000;stroke-width:0.26458332px;stroke-linecap:butt;stroke-linejoin:miter;stroke-opacity:1"
       d="m 159.51171,100.5324 c 0.003,0.006 0.005,0.0113 0.008,0.0165 8e-4,0.002 0.003,0.002 0.004,0.003 0.004,0.003 0.008,0.007 0.0124,0.0103 0.0557,0.0505 -0.0235,-0.0168 0.0548,0.0434 0.008,0.006 0.0265,0.022 0.031,0.0331 0.01,0.0241 0.0113,0.0424 0.0134,0.0672 0.001,0.0141 0.001,0.0164 0.001,0.0289 0,0.0172 5.3e-4,0.0237 -0.004,0.0455 -10e-4,0.005 -0.004,0.01 -0.006,0.0145 -0.003,0.005 -0.002,0.005 -0.005,0.005"
       id="path71"
       inkscape:connector-curvature="0" />
    <path
       style="fill:none;stroke:#000000;stroke-width:0.26458332px;stroke-linecap:butt;stroke-linejoin:miter;stroke-opacity:1"
       d="m 159.41972,100.5045 c -0.006,-0.0231 -0.006,-0.0166 -0.006,-0.0413 -2.3e-4,-0.0162 0,-0.0324 0,-0.0486 0,-0.0131 -0.003,-0.0265 0,-0.0393 0.002,-0.009 0.0108,-0.0275 0.0217,-0.0341 0.001,-7.9e-4 0.003,-7.9e-4 0.004,-0.001 0.002,-5.3e-4 0.01,-0.002 0.0114,-0.002 0.004,-2.3e-4 0.008,0 0.0114,0 0.003,0 0.006,0 0.008,0 10e-4,0 0.003,-1.3e-4 0.004,0 0.002,2.2e-4 0.005,7.9e-4 0.007,0.001 7.9e-4,8e-5 0.001,-2.6e-4 0.002,0 1.3e-4,7e-5 0.004,0.004 0.004,0.004 5.3e-4,5.3e-4 0.002,2.7e-4 0.002,0.001 5.3e-4,0.001 0,0.003 0,0.004 0,0.004 2.1e-4,0.01 -10e-4,0.0134 -0.007,0.0199 -0.01,0.0372 -0.0269,0.0496 -0.011,0.008 -0.0376,0.0121 -0.0476,0.0145 -0.007,0.002 -0.0138,0.003 -0.0207,0.005 -0.01,0.003 -0.0103,0.006 -0.0196,0.004 -0.002,-2.7e-4 -0.0213,-0.005 -0.0259,-0.007 -0.003,-0.002 -0.003,-0.002 -0.003,-0.004 0,-2.7e-4 -2.4e-4,-8e-4 0,-10e-4 2.5e-4,-2.5e-4 8e-4,1.2e-4 0.001,0 0.002,-8e-4 0.005,-0.002 0.007,-0.003 0.006,-0.003 0.0135,-0.005 0.0186,-0.0103 0.0103,-0.0101 0.0154,-0.0253 0.0269,-0.0341 0.0167,-0.0127 0.0366,-0.0205 0.0558,-0.0289 0.0114,-0.005 0.0461,-0.0168 0.063,-0.0176 0.0244,-0.001 0.0674,-0.008 0.093,0.009 0.0137,0.009 0.0167,0.0312 0.0186,0.0444 2.6e-4,0.002 0.003,0.0389 -0.001,0.0455 -0.004,0.007 -0.0114,0.0114 -0.0176,0.0165 -0.0114,0.009 -0.0228,0.0188 -0.0352,0.0269 -0.0164,0.0108 -0.0795,0.0558 -0.11575,0.063 -0.008,0.002 -0.0603,0.004 -0.0724,0.005 -0.006,5.3e-4 -0.0116,0.002 -0.0176,0.003 -0.004,5.3e-4 -0.009,2.6e-4 -0.0134,0 -0.0143,-8e-4 -0.0335,-0.002 -0.0455,-0.0114 -0.003,-0.002 -0.002,-0.008 -0.002,-0.0114 -0.001,-0.0366 -0.002,-0.0365 0.0382,-0.0589 0.0157,-0.009 0.0342,-0.0114 0.0506,-0.0186 0.009,-0.004 0.0165,-0.01 0.0248,-0.0145 0.0269,-0.0103 0.0538,-0.0206 0.0806,-0.031 0.0202,-0.008 0.0306,-0.0136 0.0496,-0.0176 0.003,-5.3e-4 0.006,-5.3e-4 0.009,-10e-4 0.0136,-0.002 0.0212,-0.004 0.0351,-0.001 0.008,0.002 0.0117,0.006 0.0103,0.0155 -0.001,0.008 -0.001,0.017 -0.007,0.0217 -0.01,0.008 -0.0245,0.007 -0.0362,0.0124 -0.0155,0.007 -0.0271,0.0148 -0.0382,0.0269 -0.005,0.005 -0.007,0.0111 -0.0124,0.0155 -0.0157,0.0142 -0.0312,0.0173 -0.0517,0.0238 -0.007,0.002 -0.0151,0.004 -0.0227,0.006 -2.7e-4,7e-5 0,-8e-4 0,-0.001 0,-2.7e-4 0,-8e-4 0,-0.001 0,-2.7e-4 -2.6e-4,-8e-4 0,-10e-4 0.007,-0.006 0.0131,-0.0125 0.0207,-0.0176 0.021,-0.0141 0.15289,-0.10012 0.19224,-0.11575 0.023,-0.009 0.0477,-0.0148 0.0723,-0.0165 0.007,-5.3e-4 0.0334,0.0206 0.0207,0.032 -0.066,0.0593 -0.13157,0.0884 -0.21084,0.12092 -0.0158,0.006 -0.0318,0.0133 -0.0486,0.0165 -0.0269,0.005 -0.0544,0.006 -0.0816,0.008 -0.0681,0.007 -0.0554,0.005 -0.14469,0.004 -0.006,-5e-5 -0.0111,-7e-5 -0.0165,-10e-4 -0.001,-2.3e-4 -0.001,-0.003 -0.001,-0.004 0,-2.7e-4 -2.4e-4,-8e-4 0,-0.001 5.3e-4,-5.3e-4 0.003,-0.002 0.003,-10e-4 2.4e-4,2.4e-4 0,7.9e-4 0,10e-4 0,2.6e-4 0,7.9e-4 0,0.001"
       id="path73"
       inkscape:connector-curvature="0" />
    <path
       style="fill:none;stroke:#000000;stroke-width:0.26458332px;stroke-linecap:butt;stroke-linejoin:miter;stroke-opacity:1"
       d="m 159.18201,100.5324 c -0.003,-2.6e-4 -0.007,-7.9e-4 -0.0103,-10e-4 -0.003,-2.7e-4 -0.006,-8e-4 -0.009,-0.001 -0.004,-2.7e-4 -0.008,-5.3e-4 -0.0114,-0.001 -0.002,-2.2e-4 -0.003,-7.9e-4 -0.005,-10e-4 -0.003,-2.6e-4 -0.006,0 -0.008,0 -0.0177,0 0.009,-9e-5 -0.03,10e-4 -0.007,1.9e-4 -0.0131,0 -0.0196,0 -0.003,0 -0.007,2e-4 -0.0104,0 -0.004,-2.2e-4 -0.008,-5.3e-4 -0.0114,-10e-4 -0.005,-5.3e-4 -0.01,-2.6e-4 -0.0145,-0.002 -0.007,-0.002 -0.0128,-0.006 -0.0186,-0.0103 -0.0156,-0.0108 -7e-5,-0.008 -0.0227,-0.0165 -0.007,-0.003 -0.0152,-0.003 -0.0227,-0.005 -0.006,-0.001 -0.0116,-0.003 -0.0176,-0.004 -0.006,-0.001 -0.0125,-8e-4 -0.0186,-0.002 -0.003,-5.3e-4 -0.005,-0.003 -0.007,-0.003 -0.002,-5.3e-4 -0.005,1.8e-4 -0.007,0 -0.002,-1.7e-4 -0.005,-7.9e-4 -0.007,-0.001 -0.003,-2.7e-4 -0.006,-8e-4 -0.009,-0.001 -0.003,-2.7e-4 -0.007,-5.3e-4 -0.0103,-10e-4 -0.001,-1.6e-4 -0.002,-7.9e-4 -0.003,-0.001 -0.001,-2.6e-4 -0.003,0 -0.004,0 -2.7e-4,0 -0.001,2.7e-4 -0.001,0 0,-2.6e-4 7.9e-4,0 0.001,0 2.6e-4,0 7.9e-4,0 0.001,0"
       id="path75"
       inkscape:connector-curvature="0" />
    <path
       style="fill:none;stroke:#000000;stroke-width:0.26458332px;stroke-linecap:butt;stroke-linejoin:miter;stroke-opacity:1"
       d="m 158.88022,100.46936 0.13849,0.0941"
       id="path77"
       inkscape:connector-curvature="0" />
    <path
       style="fill:none;stroke:#000000;stroke-width:0.26458332px;stroke-linecap:butt;stroke-linejoin:miter;stroke-opacity:1"
       d="m 159.01871,100.56346 c 0.008,-0.006 0.014,-0.0113 0.0238,-0.0135 0.004,-8e-4 0.008,-5.3e-4 0.0124,-0.001 0.0125,-0.002 0.023,-0.005 0.0351,-0.005 0.007,-2.7e-4 0.017,5.3e-4 0.0238,0 0.003,-2.7e-4 0.006,-0.002 0.009,-0.002 0.002,-5.3e-4 0.005,-5.3e-4 0.007,-0.001 0.006,-0.002 0.009,-0.001 0.0124,-0.005 7.9e-4,-7.9e-4 0.003,-0.004 0.003,-0.005 1.1e-4,-2.6e-4 -2.5e-4,-7.9e-4 0,-10e-4 2.4e-4,-2.5e-4 7.9e-4,0 0.001,0"
       id="path79"
       inkscape:connector-curvature="0" />
    <path
       style="fill:none;stroke:#000000;stroke-width:0.26458332px;stroke-linecap:butt;stroke-linejoin:miter;stroke-opacity:1"
       d="m 158.5805,100.36911 c -0.0682,-0.0186 -0.1383,-0.0314 -0.20464,-0.0558 -0.006,-0.002 0,-0.0131 0,-0.0196 0,-0.005 0,-0.0103 0,-0.0155 0,-0.0379 0,-0.0758 0,-0.11369 0,-0.0138 0,-0.0276 0,-0.0413 0,-0.001 0,-0.003 0,-0.004 0,-7.9e-4 0,-0.001 0,-0.002 0,-2.6e-4 -2.4e-4,-7.9e-4 0,-0.001 2.4e-4,-2.5e-4 8e-4,0 0.001,0"
       id="path81"
       inkscape:connector-curvature="0" />
    <path
       style="fill:none;stroke:#000000;stroke-width:0.26458332px;stroke-linecap:butt;stroke-linejoin:miter;stroke-opacity:1"
       d="m 158.63218,100.24198 0.97668,0.15607"
       id="path83"
       inkscape:connector-curvature="0" />
    <path
       style="fill:none;stroke:#000000;stroke-width:0.26458332px;stroke-linecap:butt;stroke-linejoin:miter;stroke-opacity:1"
       d="m 158.56603,100.78458 c 10e-5,-0.0857 0.01,-0.21959 0.032,-0.28938 0.0186,-0.0586 0.049,-0.11403 0.0858,-0.1633 0.0614,-0.0823 0.13781,-0.15227 0.20671,-0.22841"
       id="path85"
       inkscape:connector-curvature="0" />
    <path
       style="fill:none;stroke:#000000;stroke-width:0.26458332px;stroke-linecap:butt;stroke-linejoin:miter;stroke-opacity:1"
       d="m 158.69005,100.73498 c 0.0225,-0.0306 0.0447,-0.058 0.061,-0.093 0.01,-0.0206 0.0135,-0.0434 0.0227,-0.0641 0.0201,-0.0449 0.0391,-0.0906 0.0651,-0.13229 0.0177,-0.0284 0.0457,-0.0492 0.0651,-0.0765 0.0519,-0.0729 0.0464,-0.12068 0.13022,-0.18294 0.0652,-0.0484 0.12313,-0.0544 0.19534,-0.0589 0.11083,-0.007 0.10112,-0.006 0.1788,-0.006"
       id="path87"
       inkscape:connector-curvature="0" />
  </g>
</svg>
